<?xml version="1.0" encoding="utf-8"?>
<!-- Generator: Adobe Illustrator 25.2.0, SVG Export Plug-In . SVG Version: 6.00 Build 0)  -->
<svg version="1.1" id="Layer_1" xmlns="http://www.w3.org/2000/svg" xmlns:xlink="http://www.w3.org/1999/xlink" width="470.562" height="350.029" x="0px" y="0px"
     viewBox="0 0 470.6 350" style="enable-background:new 0 0 470.6 350;" xml:space="preserve">
<style type="text/css">
	.st0{opacity:0.43;fill:#D3E3EB;enable-background:new    ;}
	.st1{fill:#B0C4CB;}
	.st2{fill:#91ADB7;}
	.st3{fill:#AA8B33;}
	.st4{fill:#E3BD78;}
	.st5{fill:#2C3C4D;}
	.st6{fill:#1F2E40;}
	.st7{fill:#D3E3EB;}
	.st8{fill:#D4904F;}
	.st9{fill:#8BA6AF;}
	.st10{opacity:0.67;fill:#D4904F;enable-background:new    ;}
	.st11{opacity:0.25;fill:#494949;enable-background:new    ;}
	.st12{opacity:0.29;fill:#494949;enable-background:new    ;}
	.st13{fill:#494949;}
	.st14{opacity:0.48;fill:#2C3C4D;enable-background:new    ;}
	.st15{fill:#6D6D6D;}
	.st16{fill:#606060;}
	.st17{fill:#4F4429;}
	.st18{fill-rule:evenodd;clip-rule:evenodd;fill:#2D9CE8;}
	.st19{fill-rule:evenodd;clip-rule:evenodd;fill:#EA3942;}
	.st20{fill-rule:evenodd;clip-rule:evenodd;fill:#208E48;}
	.st21{fill:#FFFFFF;}
	.st22{opacity:0.5;}
	.st23{fill:#E45834;}
	.st24{enable-background:new    ;}
	.st25{fill:#8BA6AF;stroke:#8BA6AF;stroke-width:0.9999;stroke-linecap:round;stroke-linejoin:round;stroke-miterlimit:3.9997;}
	.st26{display:none;fill:#AA8B33;}
	.st27{display:none;fill:#4F4429;enable-background:new    ;}
	.st28{font-family:'EdwardianScriptITC';}
	.st29{font-size:29.1133px;}
</style>
<g id="Group_762" transform="translate(-858.739 -296.471)">
	<g id="Layer_2_1_" transform="translate(847.129 320)">
		<path id="Path_991" class="st0" d="M482.2,317.2c0-5.1-105.3-9.3-235.3-9.3s-235.3,4.2-235.3,9.3c0,5.1,105.3,9.3,235.3,9.3
			S482.2,322.4,482.2,317.2z"/>
		<rect id="Rectangle_134" x="159.4" y="205.8" class="st1" width="10.7" height="102.4"/>
		<rect id="Rectangle_135" x="159.4" y="205.8" class="st2" width="10.7" height="14.4"/>
		<path id="Path_992" class="st1" d="M121.5,308h89.8c3.4,0,6.2,2.8,6.2,6.2l0,0v3.2H115.3v-3.2C115.4,310.8,118.1,308.1,121.5,308z
			"/>
		<path id="Path_993" class="st1" d="M139.3,205.8h74.2c-27-9.8-16.6-101-11.6-135.6c0.9-6.3-3.5-12.2-9.8-13.1
			c-0.5-0.1-1.1-0.1-1.6-0.1h-49.4c-10.1,0-18.7,7.4-20.1,17.4c-4.3,31.4-11.1,96.7,2.4,121.9C126.6,202.2,132.7,205.8,139.3,205.8
			L139.3,205.8z"/>
		<path id="Path_994" class="st3" d="M391.5-23.5H271.9c-6.1,0-11,4.9-11,11v54c0,6.1,4.9,11,11,11h8.4v13.1c0.1,1.2,1.1,2,2.3,2
			h0.1c0.4,0,0.8-0.2,1-0.5l16.2-14.6h91.5c6.1,0,11-4.9,11-11v-53.9C402.5-18.4,397.7-23.4,391.5-23.5
			C391.6-23.5,391.6-23.5,391.5-23.5z"/>
		<path id="Path_1002" class="st4" d="M230.1,293l-1,7.2l5.5,7.1l14-6.8l1.5-6.6l-17.4-2.6L230.1,293z"/>
		<path id="Path_1003" class="st5" d="M241.4,316.2l1.4-1.8c0.2-0.3,0.7-0.3,0.9-0.1l0.1,0.1l1.4,1.6c0.6,0.7,1.5,1.1,2.4,1
			l32.4-0.6c0.7-0.7,0.7-1.8,0-2.5c-4.8-4.8-30.4-13-31.7-13.8c-1.3-0.8-9.1,5.4-19.6-0.2c-0.9,4.4-1.6,8.9-2,13.4
			c-0.1,2,1.4,3.8,3.5,3.9h0.3l8.3-0.2C239.8,317.3,240.8,316.9,241.4,316.2z"/>
		<path id="Path_1004" class="st5" d="M170.6,170.7c0,0-13.4,14.9,11.2,31.1c17.3,11.4,31,7.9,41.8,14.8c2.6,1.5,4.4,4.1,4.7,7.1
			l0.6,69.6l1.3,0.7c6.6,3.2,14.2,3.3,20.8,0.3l0,0l9.8-79.4c0.3-5.4-2.6-10.1-6-14.4c-18.9-24-52.2-32.2-60.8-33.5
			C183.1,164.9,170.6,170.7,170.6,170.7z"/>
		<path id="Path_1005" class="st4" d="M176.5,293l-1.1,7.2l5.4,7.1l14-6.6l1.6-6.6l-17.4-2.9L176.5,293z"/>
		<path id="Path_1006" class="st5" d="M187.4,316.4l1.4-1.8c0.2-0.3,0.7-0.3,0.9-0.1l0.1,0.1l1.4,1.6c0.6,0.7,1.5,1.1,2.4,1.1
			l32.4-0.1c0.7-0.7,0.7-1.8,0.1-2.5l0,0l0,0c-4.7-4.9-30.2-13.5-31.4-14.2c-1.3-0.7-9.2,5.3-19.6-0.5c-1,4.4-1.7,8.9-2.1,13.4
			c-0.2,2,1.3,3.7,3.2,3.9c0.1,0,0.1,0,0.2,0h8.5C185.9,317.4,186.8,317.1,187.4,316.4L187.4,316.4z"/>
		<path id="Path_1007" class="st5" d="M129.6,157.7c0,0-16.3,18.2,7.3,38.7c16.6,14.4,31.4,8.3,41.9,17c2.5,1.9,4,4.9,3.9,8.1
			l-7.5,70.8l0.6,0.3c6.5,4.2,14.8,4.8,21.8,1.4l0,0l18.5-74.6c1.1-5.7-1.3-11-4.3-16c-16.4-27.9-42.1-44.6-50.8-47.2
			C149.7,152.8,129.6,157.7,129.6,157.7z"/>
		<path id="Path_1008" class="st6" d="M219.7,214.5c-1.3-0.5-2.5-0.9-3.8-1.4c-0.8-3.4-2.2-6.7-4.2-9.6
			c-7.4-12.5-16.9-23.6-28.1-32.8c6-1,8.9-2.3,10.6-3.9c6,1.1,12,2.7,17.8,4.8C220,184.9,220,206.8,219.7,214.5z"/>
		<path id="Path_1009" class="st7" d="M173.6,61.4c0,0-23.5-3.1-33.3,15.2s-24.4,90.2-11.7,92.4c5.6,0.9,20.8,4.8,37.5,3.6
			c23-1.6,28-3.8,29.6-8.2l14.6-67c0.4-9.2-3.8-18.1-11.1-23.7C191.6,68.2,182.9,64,173.6,61.4L173.6,61.4z"/>
		<path id="Path_1010" class="st1" d="M210.3,91.6c0,0,0.3,40.3,13,42.8c12.8,2.5,46.5,1.6,46.5,1.6v12.8h-72.4L210.3,91.6z"/>
		<path id="Path_1011" class="st8" d="M192.8,73.3l2.9-14.3l-18.6-14.1l-3.6,16.8C173.5,61.7,179.4,87.4,192.8,73.3z"/>
		<path id="Path_1012" class="st5" d="M216.3,31.7c0,0-9.7,4.7-23.9-3.9c0,0-3.2,6-12.8,11.2c0,0-4.9-8.3-7.8-2
			c-0.8,1.6-1.2,3.3-1.3,5.1c-8.9-11.5-2.6-26.5,5.7-34.7c7.9-7.7,24.9-4.7,35.6-0.4c11.3,4.5,13.4-3.3,13.4-3.3
			C239.5,23.6,216.3,31.7,216.3,31.7z"/>
		<path id="Path_1013" class="st4" d="M179.7,39.1c0,0-4.9-8.3-7.8-2.1c-3.5,7.5,0.4,12.3,5.1,12.3c0,0,3.7,19.6,21.7,18.2
			c18-1.4,20.6-30.3,17.6-35.7c0,0-9.8,4.7-23.9-3.9C192.5,27.8,189.2,33.7,179.7,39.1z"/>
		<path id="Path_1014" class="st7" d="M335.7,84.8h-75.1c-3.7,0-6.9,2.6-7.7,6.2l-10,49h91l9.4-45.9c0.9-4.2-1.8-8.3-6-9.2
			C336.8,84.9,336.3,84.8,335.7,84.8L335.7,84.8z"/>
		<path id="Rectangle_136" class="st9" d="M207.7,140.1h127.7c1.1,0,1.9,0.8,2,1.9c0,0,0,0,0,0.1v4.8c0,1.1-0.8,1.9-1.9,2
			c0,0,0,0-0.1,0H207.7c-1.1,0-1.9-0.8-2-1.9c0,0,0,0,0-0.1V142C205.8,141,206.6,140.1,207.7,140.1L207.7,140.1z"/>
		<path id="Path_1015" class="st1" d="M333.7,140.1H242c2,0,3.7,1.6,3.7,3.7l0,0v1.2c0,2.1-1.7,3.7-3.7,3.7h91.7
			c2.1,0,3.7-1.7,3.7-3.7l0,0v-1.2C337.4,141.7,335.7,140.1,333.7,140.1z"/>
		<path id="Path_1016" class="st7" d="M213.5,137.4c-14.6-1.7-55.7-5.9-62.7-6.6c-8.9-0.9,10.4-36.7,12.5-48.9s-7.1-12.8-7.1-12.8
			c-5.3-0.7-11,0-15.9,7.4c-10,15.1-21.2,59.5-15.3,70.5c0.7,1.3,2,2.1,3.5,2h85V137.4z"/>
		<path id="Path_1017" class="st1" d="M213.5,137.4c0,0-52.8-3.7-64.2-5.2c-8.9-1.2,9.6-37.8,11.7-50s-7.3-11.7-7.3-11.7
			c-2.8-0.3-5.6,0-8.3,0.8c3.2-2,7-2.7,10.7-2c0,0,9.4,0.4,7.1,12.7c-2.1,12.3-18.6,47.2-13,48.6
			C157.1,132.2,198.9,135.7,213.5,137.4z"/>
		<path id="Path_1018" class="st4" d="M213.5,149.3h19.7c1,0,1.9-0.8,1.9-1.9c0-0.4-0.1-0.7-0.3-1c-1.9-2.8-4.8-6.8-6.9-7.5
			c-1.3-0.4-10.9,0-14.4,0.3V149.3z"/>
		<path id="Path_1019" class="st10" d="M216.3,31.7c-1.4,0.6-2.9,0.9-4.4,1.1c-0.3,1.4-0.7,3.9-0.9,6.3c-0.3,3.5,1.4,14.2,0.3,14.3
			c-1.1,0.1-2.2,0.1-3.2,0c0,0-1.6,15.5-17.2,13h-0.4c2.6,0.9,5.5,1.3,8.3,1C216.7,65.9,219.3,37.1,216.3,31.7z"/>
		<path id="Path_1020" class="st3" d="M442.3,257.2c0,0,24.8-12.3,18-30.9s-10.9-19.4,2-29.9c12.9-10.5,31.5-36.8,7.9-38.8
			c-23.6-2-22.4,29.4-42,33.7C408.6,195.6,397.9,277.6,442.3,257.2z"/>
		<path id="Path_1021" class="st11" d="M422.8,259c4.8,2.2,11.1,2,19.6-1.9c0,0,24.8-12.3,18-30.9s-10.9-19.4,2-29.9
			c12.9-10.5,31.5-36.8,7.9-38.8c-2.1-0.2-4.2-0.1-6.3,0.3c6.6,2.7,13.3,8.2,4.7,18.3c-14.2,16.8-21.8,22.8-20.2,33.7
			C450.1,220.6,449.2,244.6,422.8,259z"/>
		<path id="Path_1022" class="st3" d="M400.3,256.6c0,0-21.8-0.8-20.6-16.4s1.8-16.3-11.9-21.2c-24.2-8.7-5-55.1,14.6-26
			c13.7,20.3,19.6,15.7,28.5,17.3C420,212,439.3,263.4,400.3,256.6z"/>
		<path id="Path_1023" class="st12" d="M410.9,210.3c-8.9-1.6-14.8,3-28.5-17.3c-10.3-15.2-20.4-9.8-24.3,0
			c5.8-1.8,14.6-2.8,15.7,6.6c1.4,12.3,30,32.3,29.4,57.3l1.1,0.1c4.2-11,9.7-25.2,14.4-37.4C416.3,214.4,413.2,210.7,410.9,210.3z"
			/>
		<path id="Path_1024" class="st13" d="M405.3,255.9c0,0-27.1-26.5-17.9-30.9c9.3-4.4,27.3,10.1,17.2-5.6s-21.9-40.2-7.9-36.4
			s15,8.2,13.3-10.2c-2.2-23.7,11-35.9,23.5-28.3c12.5,7.7-10.7,60-2.1,54.4c8.6-5.6,15.7-10.4,17.5-3.6s-24.7,33.6-14.9,29.1
			c12.2-5.6,14,4.4,10.1,10.6C440.4,241.3,424.3,278.4,405.3,255.9z"/>
		<path id="Path_1025" class="st14" d="M444.2,235c3.8-6.2,2.1-16.3-10.1-10.6c-9.8,4.5,16.7-22.3,14.9-29.1
			c-1.8-6.8-8.9-2-17.5,3.6c-8.6,5.6,14.6-46.6,2.1-54.4c-5.1-3.6-11.9-3-16.3,1.4c6.6,1.6,11.7,6.8,8.1,20.8
			c-7.6,29.7-12.2,54.5,1.6,47.2c13-6.8-15.1,24.7-15.5,47.4C427.8,270.5,440.8,240.6,444.2,235z"/>
		<path id="Path_1026" class="st7" d="M386.6,258.9l5.2,47.2c0.7,5.9,5.7,10.4,11.7,10.4h30.2c6,0,11-4.5,11.7-10.4l5.2-47.2
			c0.3-2.4-1.4-4.6-3.8-4.9H391c-2.4,0-4.3,1.9-4.3,4.3C386.6,258.6,386.6,258.8,386.6,258.9L386.6,258.9z"/>
		<path id="Path_1027" class="st1" d="M446.2,254.1H427c2.4,0,4.3,1.9,4.3,4.3v0.6l-5.2,47.2c-0.7,5.9-5.7,10.4-11.7,10.4h19.1
			c6,0,11-4.5,11.7-10.4l5.2-47.2c0.3-2.4-1.4-4.6-3.8-4.9C446.5,254.2,446.3,254.1,446.2,254.1L446.2,254.1z"/>
		<path id="Rectangle_137" class="st15" d="M26.9,149.2h363.4c2-0.1,3.6,1.4,3.7,3.4v8.4c-0.1,2-1.8,3.5-3.7,3.4H26.9
			c-2,0.1-3.6-1.4-3.7-3.4v-8.4C23.3,150.6,24.9,149.1,26.9,149.2z"/>
		<path id="Path_1028" class="st16" d="M386.8,149.2H30.4c-3.9,0-7.2,2.9-7.2,6.6v2.1c0,0.7,0.1,1.3,0.4,2c1.1-2.8,3.8-4.6,6.8-4.5
			h356.5c3-0.1,5.8,1.8,6.8,4.6c0.3-0.6,0.4-1.3,0.4-2v-2.2c0-3.6-3.2-6.6-7.1-6.6L386.8,149.2L386.8,149.2z"/>
		<path id="Path_1029" class="st13" d="M166.1,316.9h-10.8L80,164.5h10.8L166.1,316.9z"/>
		<path id="Path_1030" class="st13" d="M46.9,316.9h10.8L133,164.5h-10.8L46.9,316.9z"/>
		<path id="Path_1031" class="st13" d="M399.1,316.9h-10.8L313,164.5h10.8L399.1,316.9z"/>
		<path id="Path_1032" class="st13" d="M280,316.9h10.8l75.3-152.4h-10.8L280,316.9z"/>
		<path id="Path_1033" class="st17" d="M93.8,170.5l-3-6H80l3,6H93.8z"/>
		<path id="Path_1034" class="st17" d="M130.1,170.5l3-6h-10.8l-3,6H130.1z"/>
		<path id="Path_1035" class="st17" d="M326.8,170.5l-3-6H313l3,6H326.8z"/>
		<path id="Path_1036" class="st17" d="M363.1,170.5l3-6h-10.8l-3,6H363.1z"/>
		<g id="Group_763" transform="translate(-27 14.115)">
			<path id="Path_1067" class="st6" d="M87.6,135.4H64.3v-6.5c0-1.6,1.3-2.9,2.9-2.9h17.5c1.6,0,2.9,1.3,2.9,2.9
				C87.6,128.9,87.6,135.4,87.6,135.4z"/>
			<g id="Group_755" transform="translate(75.574 30.729)">
				<path id="Path_1068" class="st18" d="M0.1,19.9C26,7.2,50,28.1,75.9,16.3V1.1C50,12.1,26-8.8,0,4.7C0,9.7,0,14.8,0.1,19.9z"/>
				<path id="Path_1069" class="st19" d="M0.1,34.7C26,22.8,50,43.8,75.9,31.1V16C49.9,27.8,26,6.9,0.1,19.6V34.7z"/>
				<path id="Path_1070" class="st20" d="M0.1,49.7C25.9,38.6,49.9,59.5,76,46V30.9c-26,12.7-50-8.3-75.8,3.6
					C0.1,39.7,0.1,44.7,0.1,49.7z"/>
			</g>
			<g id="Group_756" transform="translate(106.466 50.585)">
				<path id="Path_1071" class="st21" d="M6.6,9.7c-2.4,0-4.4-2-4.4-4.4s1.9-4.4,4.3-4.4c1.1,0,2.2,0.4,3.1,1.2C8.6,0.8,7,0,5.3,0.1
					C2.3,0,0,2.5,0,5.4s2.5,5.3,5.4,5.2c1.7,0,3.2-0.8,4.2-2.2C8.8,9.3,7.7,9.7,6.6,9.7z"/>
				<path id="Path_1072" class="st21" d="M11.1,2.3l0.6,1.6l1.5-0.8l-0.7,1.5l1.6,0.5l-1.6,0.7l0.7,1.5l-1.5-0.7l-0.5,1.6l-0.6-1.6
					L9.1,7.4l0.7-1.5L8.2,5.3l1.6-0.6L9.1,3.2l1.5,0.7L11.1,2.3z"/>
			</g>
			<path id="Path_1073" class="st1" d="M83,125.9H68.8v-5.2c0-1,0.8-1.8,1.8-1.8h10.6c1,0,1.8,0.8,1.8,1.8L83,125.9z"/>
			<rect id="Rectangle_203" x="75.1" y="32.9" class="st13" width="1.7" height="86.1"/>
		</g>
		<g id="Group_761" transform="translate(272.643 94.163)">
			<g id="Group_757" transform="translate(1.461)">
				<path id="Path_1074" class="st9" d="M39.2,13.1c-0.1,0-0.2,0-0.3,0.1c-0.5,0.3-1,0.1-1.8-0.3c-0.2-0.1-0.4-0.2-0.6-0.3
					c0,0-0.1,0-0.1-0.1l0,0c0,0,0-0.2,0.1-0.2c0.2-0.3,0.2-0.7,0-1c-0.1-0.1-0.2-0.3-0.3-0.3c-1-0.5-1.8-1.3-2.3-2.3
					c-0.5-3.3-2.8-6-4.9-8.3c-0.2-0.1-0.3-0.2-0.5-0.2c-0.2,0-0.3,0.1-0.4,0.3c-0.2,0.3-0.4,0.6-0.5,0.9C26.7,2.8,26,4,24.5,4.2
					c-0.2,0-0.5,0.2-0.5,0.4c-0.1,0.3-0.2,0.5-0.4,0.7s-0.4,0.4-0.5,0.6c-0.1,0.2-0.2,0.4-0.3,0.6c-0.1,0.1-0.1,0.3-0.2,0.3
					c0,0-0.1,0.1-0.3,0C22,6.5,21.5,6.4,21,6.5h-0.2c-0.1-0.2-0.3-0.4-0.6-0.3c-1,0.1-1.2-0.4-1.6-1.4c-0.1-0.3-0.2-0.5-0.3-0.8
					c0,0,0-0.1-0.1-0.1l0,0C18,4.1,18,4,17.9,4c-0.2-0.5-0.7-0.8-1.2-0.8c-0.3-0.5-0.7-1-1.2-1.3c-0.4-0.3-0.9-0.7-0.9-1.1
					c-0.1-0.2-0.2-0.3-0.3-0.4c-0.2-0.1-0.4-0.1-0.6,0.1l-0.1,0.1c-0.1,0.1-0.3,0.2-0.4,0.3c0-0.3-0.1-0.5-0.3-0.6
					c-0.7-0.4-1.5-0.2-1.9,0.5c0,0.1-0.1,0.1-0.1,0.2c-0.1,0.2-0.2,0.4-0.3,0.5h-0.3c-0.3-0.1-0.6,0-0.9,0.3C8.9,2,8.9,2.6,9.1,3.5
					c0,0.1,0.1,0.2,0.2,0.3C9.4,4,9.5,4.1,9.7,4.1c0.4,0.8,1.1,1.4,1.9,1.8c0.5,0.3,0.9,0.6,1.3,0.9c0,0.1-0.1,0.1-0.1,0.2
					c-0.1,0.2-0.2,0.4-0.3,0.6V8c-0.2,0-0.5,0.1-0.7,0.3l-0.1-0.1c-1.4-1.2-2-1.2-2.8-1c-0.8,0.1-1.6,0-2.3-0.4c0,0-0.1,0-0.1-0.1
					l0,0c0.1-0.2,0.2-0.4,0.2-0.6c-0.1-0.4-0.6-0.6-1-0.6C5.5,5.4,5.3,5.3,5.1,5.2C4.4,4.8,3.6,4.6,2.7,4.5c-0.1,0-0.3,0-0.4,0.1
					c-0.1,0-0.2,0-0.3,0.1C1.1,5.3-0.5,6.2,0,7.6C0.2,7.8,0.3,8,0.5,8.1L0.3,8.3C0.2,8.6,0.2,9,0.4,9.2c0.1,0.1,0.1,0.2,0.2,0.2
					c0.2,0.1,0.5,0.3,0.9,0.2c0.5,0.4,1,0.5,1.6,0.5c0.1,0.2,0.2,0.3,0.3,0.4c0.1,0,0.1,0,0.2,0.1c0.1,0,0.2,0.2,0.3,0.3
					C4,11,4.1,11.2,4.2,11.2l0.1,0.1c-0.2,0.2-0.4,0.3-0.6,0.4c-0.4,0.2-0.8,0.6-0.9,1.1c0,0.7,0.2,1.4,0.7,1.9
					c0.3,1,1.4,1.6,2.5,2.1c0.6,0.3,1.4,0.7,1.4,0.9c0,0.1,0,0.3-0.3,0.6c-0.1,0.1-0.2,0.3-0.2,0.4v0.2c-0.2,0-0.6-0.1-0.9-0.1
					c-0.2,0-0.4-0.1-0.6-0.1c-0.1,0-0.2,0-0.3,0.1c-0.5,0.2-0.8,0.6-0.8,1.1c0.1,0.5,0.7,0.6,1.1,0.7c0.2,0,0.3,0.1,0.5,0.1
					c0.4,0.8,1,1.5,1.9,2c0.6,0.3,1,0.7,1.4,1.3C9,24,9,24,9.1,24l0,0c0.4,0.4,1,0.4,1.4,0.2h0.1c0.3,0.1,0.6,0.3,0.9,0.3v0.1
					c-0.4,0-0.8,0.3-0.9,0.8c-0.2,0.6,0.3,1,0.7,1.4l0.4,0.4c-0.3,0-0.5,0.1-0.8,0.3c-0.1,0.1-0.2,0.3-0.2,0.5
					c0,0.2,0.1,0.3,0.2,0.4c0.4,0.5,0.6,1.1,0.5,1.8c0,0.6,0.1,1.1,0.5,1.4c0.3,0.2,0.7,0.1,1-0.1c0.1,0,0.1-0.1,0.2-0.2
					c0.3-0.3,0.5-0.6,0.8-0.9c0.4-0.6,0.9-1.1,1.4-1.6c0.5,0.1,1-0.2,1.4-0.6c0-0.1,0.1-0.1,0.1-0.2c0.8-1.5,4.6-3.9,6.6-4.7
					c0.9,0.6,1.6,1.5,2.1,2.4c-0.3,0.1-1.3,0.3-1.4,1c-0.3,0.8,0.3,1.4,0.9,2c0.2,0.2,0.4,0.4,0.5,0.7c-0.4,0.2-0.9,0.2-1.4,0.3
					c-0.1,0-0.3,0.1-0.3,0.2c-0.4,0.4-0.7,0.9-0.7,1.4c0.1,0.5,0.4,1,0.9,1.2c0.1,0,0.1,0.1,0.2,0.1c0.4,0.1,0.8,0.4,0.9,0.8
					c0.3,0.7,0.6,1.1,1.5,0.9c0.8,1.6,1.6,2,2.2,2.1h0.3c0.6,0,1.1-0.3,1.4-0.8c0.8-1.2,0.9-2.7,0.4-4.1c0.1-0.1,0.2-0.2,0.3-0.3
					c0.2-0.2,0.3-0.4,0.3-0.6c0.1-0.1,0.1-0.1,0.1-0.2l0.1,0.1c0.7,0.5,1.8-0.5,1.8-0.5c0.1-0.1,0.1-0.1,0.1-0.2
					c0.2-0.6,0.3-1.2,0.3-1.8c0-0.3,0.1-0.8,0.1-1.1c0.1,0.1,0.2,0.1,0.3,0.3c0.2,0.2,0.6,0.2,0.9,0c0.2-0.2,0.2-0.4,0.2-0.7v-0.4
					c0.1-0.2,0-0.4-0.1-0.6c-0.5-0.4-0.7-0.9-0.7-1.5c0.1-0.3,0.3-0.7,0.6-0.9c0.3-0.2,0.3-0.3,0.3-0.4c0-0.2,0-0.5-0.2-0.7v-0.1
					c0.1-0.2,0.2-0.4,0.2-0.6c0.1-0.3,0.2-0.7,0.1-1l0,0c0,0,0.1,0,0.1-0.1l0,0c0.2-0.1,0.3-0.2,0.3-0.3c0.1-0.1,0-0.3-0.1-0.4
					c-0.1-0.2-0.2-0.3-0.2-0.3c0.2-0.3,0.4-0.6,0.4-0.9c0.3-0.2,0.7-0.5,1.1-0.6c0.6-0.2,1.1-0.6,1.5-1c0.5,0.2,1,0.2,1.5,0.1
					c0.6-0.1,0.9-0.2,1.7,0.9c0.2,0.2,0.4,0.3,0.7,0.2c0.3-0.1,0.4-0.3,0.3-0.6l0,0C43.2,15.1,41.5,13.5,39.2,13.1z M32,29.3
					L32,29.3C32.1,29.2,32.1,29.3,32,29.3z M40.4,15.6c-0.4,0.1-0.9,0-1.3-0.2c-0.2-0.2-0.5-0.1-0.7,0.1l-0.1,0.1
					c-0.3,0.5-0.8,0.7-1.4,0.9c-0.6,0.2-1.1,0.6-1.6,1c-0.1,0.1-0.1,0.2-0.2,0.3c0,0.3-0.1,0.4-0.2,0.5c-0.4,0.3-0.5,0.9-0.2,1.3
					c-0.2,0.3-0.3,0.7-0.2,1.1V21c-0.1,0.1-0.2,0.3-0.2,0.5l0,0c-0.1,0.1-0.2,0.3-0.2,0.5l0,0c0,0.2,0.1,0.3,0.1,0.5
					c-0.4,0.4-0.7,0.9-0.9,1.4c-0.1,0.7,0.1,1.4,0.5,2c-0.1,0-0.2,0-0.3,0.1c-0.7,0.3-0.8,1.2-0.9,2.2v0.1h-0.1
					c-0.1-0.2-0.2-0.4-0.3-0.6c-0.3-0.3-0.7-0.3-1-0.2c-0.1,0-0.1,0-0.2,0.1c-0.7,0.4-0.7,1.4-0.6,2V30c0,0-0.1,0-0.1,0.1l0,0
					c-0.1,0.1-0.2,0.3-0.2,0.4c-0.2,0.1-0.3,0.2-0.3,0.3c0.1,0.2,0.2,0.6,0.2,0.7v0.3c0.5,1.1,0.5,2.3-0.1,3.3
					c-0.1,0.2-0.4,0.3-0.6,0.3c-0.2,0-0.8-0.3-1.4-1.9c-0.1-0.2-0.3-0.4-0.6-0.3h-0.2c-0.2,0.1-0.4,0.1-0.6,0.1c0-0.1,0-0.1-0.1-0.2
					c-0.2-0.8-0.8-1.4-1.6-1.5c-0.3-0.2-0.3-0.3-0.3-0.3s0-0.1,0.2-0.3c1.3-0.1,2-0.4,2.1-0.9c0.3-0.7-0.3-1.4-0.8-2
					c-0.2-0.3-0.6-0.7-0.6-0.9c0.1,0,0.2-0.2,0.6-0.3s0.8-0.3,0.9-0.7c0.3-0.9-0.9-2.3-1.7-3.1c-1.3-1.3-1.7-1.1-1.9-1
					c-2,0.7-6.2,3.1-7.4,5.3c-0.1,0.1-0.2,0.1-0.3,0.2c-0.2-0.1-0.5-0.1-0.7,0c-0.8,0.6-1.4,1.3-1.9,2c-0.1,0.2-0.2,0.3-0.3,0.4
					c0-0.5-0.1-1.1-0.3-1.6c0.4,0,0.9-0.1,1-0.5c0.2-0.5-0.3-0.9-0.5-1.1c-0.3-0.3-0.5-0.6-0.9-0.9l0,0h0.2c0.1,0,0.1,0,0.2-0.1
					c0.3-0.1,0.5-0.4,0.4-0.8c0.2-0.2,0.3-0.6,0.2-0.9c-0.2-0.4-0.7-0.5-1-0.6c-0.1,0-0.2,0-0.3-0.1c-0.1-0.2-0.2-0.3-0.4-0.3
					c-0.3,0-0.7,0-1,0.2c0,0-0.1,0-0.1,0.1l0,0c-0.4-0.6-0.9-1.1-1.5-1.4c-0.6-0.4-1.1-0.9-1.4-1.5l0,0c0.3,0,0.6-0.1,0.8-0.3
					c0.2-0.2,0.4-0.5,0.3-0.9c0.4-0.4,0.6-0.9,0.5-1.4c-0.2-0.9-1.1-1.4-2-1.8c-0.8-0.4-1.7-0.9-1.9-1.4c0-0.1,0-0.1-0.1-0.2
					c-0.6-0.9-0.6-1.1-0.6-1.1c0-0.1,0.3-0.2,0.3-0.3c0.5-0.3,1-0.7,1.3-1.3c0-0.1,0.1-0.1,0.1-0.2c0.1-0.2,0-0.5-0.1-0.7
					c-0.2-0.2-0.4-0.3-0.7-0.3l-0.1-0.1c-0.2-0.2-0.3-0.4-0.5-0.5c0-0.3-0.1-0.5-0.3-0.7C4,9.1,3.7,9,3.4,9.1
					c-0.1,0-0.1,0.1-0.2,0.1C3.1,9.4,2.7,9.3,2.5,9l0.2-0.2c0.1-0.1,0.1-0.2,0.1-0.3C2.7,7.8,2,7.3,1.3,7.3C1.3,6.9,2,6.5,2.7,6
					l0.1-0.1c0.6,0.2,1.3,0.4,1.9,0.7c0.2,0.1,0.4,0.2,0.6,0.3V7c0,0.5,0.5,0.9,0.9,1.1h0.1c0.9,0.6,2,0.8,3.1,0.5
					c0.4-0.1,0.7-0.2,1.8,0.9l0.1,0.1c0.2,0.3,0.6,0.5,0.9,0.5c0.2,0,0.5-0.1,0.6-0.3c0,0,0.1-0.1,0.1-0.2c0.9-0.1,1-0.8,1-1.4
					c0-0.1,0.1-0.2,0.2-0.3c0.1-0.3,0.2-0.6,0.3-0.9c0-0.1,0-0.2-0.1-0.3c-0.5-0.6-1.1-1.2-1.8-1.5c-0.8-0.4-1.4-0.9-1.6-1.6
					c-0.1-0.2-0.2-0.3-0.4-0.4V2.8c0.3,0,0.6-0.1,0.9-0.3c0,0,0.1,0,0.1-0.1l0,0c0.3-0.3,0.4-0.6,0.6-0.8c0-0.1,0.1-0.1,0.1-0.2
					c0.1,0.3,0.2,0.5,0.4,0.7c0.5,0.2,1,0.1,1.4-0.2c0.3,0.4,0.6,0.7,1,1s0.8,0.7,0.9,1.2c0.1,0.2,0.2,0.3,0.3,0.4
					c0.2,0.1,0.4,0.1,0.5,0c0.1,0,0.1,0,0.2-0.1c0,0.1,0.1,0.1,0.1,0.2c0,0.3,0,0.4,0,0.5c0.1,0.2,0.2,0.4,0.3,0.7
					c0.3,0.9,0.8,2.1,2.5,2.2c0.3,0.3,0.8,0.4,1.2,0.3c0.3-0.1,0.3-0.1,0.3,0c0.1,0.1,0.2,0.2,0.3,0.2c1.4,0.3,1.7-0.3,2-1L23.9,7
					l0,0c0.1-0.2,0.2-0.3,0.3-0.3c0.3-0.3,0.5-0.6,0.6-0.9c1.9-0.4,2.8-1.9,3.7-3.3c0-0.1,0.1-0.1,0.1-0.2c1.9,2,3.7,4.3,4.1,7.1
					c0,0.1,0,0.2,0.1,0.2c0.6,1.1,1.5,2,2.6,2.7v0.1c-0.3,0.6-0.1,1.2,0.4,1.6c0.1,0.1,0.1,0.1,0.2,0.1c0.2,0.1,0.4,0.2,0.6,0.3
					c0.8,0.5,1.8,0.6,2.6,0.3c0.8,0.2,1.6,0.6,2.1,1.2C41.1,15.5,40.8,15.6,40.4,15.6L40.4,15.6z"/>
				<path id="Path_1075" class="st21" d="M41.5,15.6c-0.3,0-0.7,0-1,0c-0.4,0.1-0.9,0-1.3-0.2c-0.2-0.2-0.5-0.1-0.7,0.1l-0.1,0.1
					c-0.3,0.5-0.8,0.7-1.4,0.9c-0.6,0.2-1.1,0.6-1.6,1c-0.1,0.1-0.1,0.2-0.2,0.3c0,0.3-0.1,0.4-0.2,0.5c-0.4,0.3-0.5,0.9-0.2,1.3
					c-0.2,0.3-0.3,0.7-0.2,1.1V21c-0.1,0.1-0.2,0.3-0.2,0.5l0,0c-0.1,0.1-0.2,0.3-0.2,0.5l0,0c0,0.2,0.1,0.3,0.1,0.5
					c-0.4,0.4-0.7,0.9-0.9,1.4c-0.1,0.7,0.1,1.4,0.5,2c-0.1,0-0.2,0-0.3,0.1c-0.7,0.3-0.8,1.2-0.9,2.2v0.1h-0.1
					c-0.1-0.2-0.2-0.4-0.3-0.6c-0.3-0.3-0.7-0.3-1-0.2c-0.1,0-0.1,0-0.2,0.1c-0.7,0.4-0.7,1.4-0.6,2V30c0,0-0.1,0-0.1,0.1l0,0
					c-0.1,0.1-0.2,0.3-0.2,0.4c-0.2,0.1-0.3,0.2-0.3,0.3c0,0.2,0.1,0.6,0.1,0.7v0.3c0.5,1.1,0.5,2.3-0.1,3.3
					c-0.1,0.2-0.4,0.3-0.6,0.3c-0.2,0-0.8-0.3-1.4-1.9c-0.1-0.2-0.3-0.4-0.6-0.3h-0.2c-0.2,0.1-0.4,0.1-0.6,0.1c0-0.1,0-0.1-0.1-0.2
					c-0.2-0.8-0.8-1.4-1.6-1.5c-0.3-0.2-0.3-0.3-0.3-0.3s0-0.1,0.2-0.3c1.3-0.1,2-0.4,2.1-0.9c0.3-0.7-0.3-1.4-0.8-2
					c-0.2-0.3-0.6-0.7-0.6-0.9c0.1,0,0.2-0.2,0.6-0.3s0.8-0.3,0.9-0.7c0.3-0.9-0.9-2.3-1.7-3.1c-1.3-1.3-1.7-1.1-1.9-1
					c-2,0.7-6.2,3.1-7.4,5.3c-0.1,0.1-0.2,0.1-0.3,0.2c-0.2-0.1-0.5-0.1-0.7,0c-0.8,0.6-1.4,1.3-2,2c-0.1,0.2-0.2,0.3-0.3,0.4
					c0-0.5-0.1-1.1-0.3-1.6c0.4,0,0.9-0.1,1-0.5c0.2-0.5-0.3-0.9-0.5-1.1c-0.3-0.3-0.5-0.6-0.9-0.9H12h0.2c0.1,0,0.1,0,0.2-0.1
					c0.3-0.1,0.5-0.4,0.4-0.8c0.2-0.2,0.3-0.6,0.2-0.9c-0.2-0.4-0.7-0.5-1-0.6c-0.1,0-0.2,0-0.3-0.1c-0.1-0.2-0.2-0.3-0.4-0.3
					c-0.3,0-0.7,0-1,0.2c0,0-0.1,0-0.1,0.1l0,0c-0.4-0.6-0.9-1.1-1.5-1.4c-0.6-0.4-1.1-0.9-1.4-1.5l0,0c0.3,0,0.6-0.1,0.8-0.3
					c0.2-0.2,0.4-0.5,0.3-0.9c0.4-0.4,0.6-0.9,0.5-1.4c-0.2-0.9-1.1-1.4-2-1.8c-0.8-0.4-1.7-0.9-1.9-1.4c0-0.1,0-0.1-0.1-0.2
					c-0.6-0.9-0.6-1.1-0.6-1.1c0-0.1,0.3-0.2,0.3-0.3c0.5-0.3,1-0.7,1.3-1.3c0-0.1,0.1-0.1,0.1-0.2c0.1-0.2,0-0.5-0.1-0.7
					c-0.2-0.2-0.4-0.3-0.7-0.3l-0.1-0.1c-0.2-0.2-0.3-0.4-0.5-0.5c0-0.3-0.1-0.5-0.3-0.7C4,9.1,3.7,9,3.4,9.1
					c-0.1,0-0.1,0.1-0.2,0.1C3.1,9.4,2.7,9.3,2.5,9l0.2-0.2c0.1-0.1,0.1-0.2,0.1-0.3C2.6,7.8,2,7.3,1.3,7.3C1.3,6.9,2,6.5,2.7,6
					l0.1-0.1C3.5,6,4.1,6.3,4.7,6.6c0.2,0.1,0.4,0.2,0.6,0.3V7c0,0.5,0.5,0.9,0.9,1.1h0.1c0.9,0.6,2,0.8,3.1,0.5
					c0.4-0.1,0.7-0.2,1.8,0.9l0.1,0.1c0.2,0.3,0.6,0.5,0.9,0.5c0.2,0,0.5-0.1,0.6-0.3c0,0,0.1-0.1,0.1-0.2c0.9-0.1,1-0.8,1-1.4
					C13.9,8,14,7.9,14,7.8c0.1-0.3,0.2-0.6,0.3-0.9c0-0.1,0-0.2-0.1-0.3c-0.5-0.6-1.1-1.2-1.8-1.5c-0.8-0.4-1.4-0.9-1.6-1.6
					c-0.1-0.2-0.2-0.3-0.4-0.4V2.8c0.3,0,0.6-0.1,0.9-0.3c0,0,0.1,0,0.1-0.1l0,0c0.3-0.3,0.4-0.6,0.6-0.8c0-0.1,0.1-0.1,0.1-0.2
					c0.1,0.3,0.2,0.5,0.4,0.7c0.5,0.2,1,0.1,1.4-0.2c0.3,0.4,0.6,0.7,1,1s0.8,0.7,0.9,1.2c0.1,0.2,0.2,0.3,0.3,0.4
					c0.2,0.1,0.4,0.1,0.5,0c0.1,0,0.1,0,0.2-0.1c0,0.1,0.1,0.1,0.1,0.2c0,0.3,0,0.4,0.1,0.4c0.1,0.2,0.2,0.4,0.3,0.7
					c0.3,0.9,0.8,2.1,2.5,2.2c0.3,0.3,0.8,0.4,1.2,0.3c0.3-0.1,0.3-0.1,0.3,0c0.1,0.1,0.2,0.2,0.3,0.2c1.4,0.3,1.7-0.3,2-1l0.3-0.5
					l0,0c0.1-0.2,0.2-0.3,0.3-0.3c0.3-0.3,0.5-0.6,0.6-0.9c1.9-0.4,2.8-1.9,3.7-3.3c0-0.1,0.1-0.1,0.1-0.2c1.9,2,3.7,4.3,4.1,7.1
					c0,0.1,0,0.2,0.1,0.2c0.6,1.1,1.5,2,2.6,2.7v0.1c-0.3,0.6-0.1,1.2,0.4,1.6C35.9,14,35.9,14,36,14c0.2,0.1,0.4,0.2,0.6,0.3
					c0.8,0.5,1.8,0.6,2.6,0.3C40,14.5,40.8,14.9,41.5,15.6z"/>
			</g>
			<g id="Group_758" transform="translate(0 21.796)">
				<path id="Path_1076" class="st9" d="M11.2,8.4c-0.2-0.3-0.3-0.6-0.3-0.9c0-0.1,0-0.2-0.1-0.2c-0.1-0.2-0.2-0.4-0.3-0.7
					c-0.1-0.1-0.1-0.2-0.1-0.3c0-0.2,0.1-0.3,0.2-0.5c0.1-0.3,0-0.6-0.2-0.8c-0.3-0.2-0.7-0.5-1-0.7C9.1,4.2,9,4.2,9,4.1
					c0-0.4,0-0.8,0.1-1.2V2.7c0-0.4-0.3-0.7-0.7-0.9C7.8,1.6,7.2,1.9,6.6,2.1C6.3,2.3,6,2.4,5.7,2.5l0,0c0-0.2-0.2-0.3-0.4-0.3H5.1
					C5,1.9,4.8,1.7,4.5,1.6c-0.1-0.1-0.3-0.1-0.4,0c0-0.5-0.2-0.9-0.5-1.2c-0.8-0.7-2-0.3-3.2,0.1C0,0.5-0.1,0.9,0,1.2
					c0.3,0.8,0.5,1,1,1.2l0,0C1.1,2.7,1.2,3,1.2,3.3c0,0.1,0,0.1,0.1,0.2c0.2,0.4,0.5,0.7,0.9,1C2.7,5,3,5.4,3,6
					c0,0.2,0.1,0.3,0.3,0.4c0.1,0.1,0.3,0.1,0.5,0.1c0.3,0,0.6,0.1,0.9,0.3c0,0.1,0,0.3,0.1,0.4S5,7.4,5,7.5c0,0.2,0.1,0.3,0.1,0.3
					C5,8,5.1,8.3,5.4,8.4c0.9,0.6,1.9,0.9,2.9,1c0.6,0,1.1,0.2,1.7,0.3c0.3,0.2,0.7,0.3,1,0.3c0.2,0,0.4-0.1,0.5-0.2
					C11.8,9.5,11.5,9,11.2,8.4z M8.3,8.2C7.6,8.1,6.8,7.9,6.2,7.7C6.1,7.3,5.9,7,5.6,6.7l0,0c0-0.2-0.1-0.5-0.3-0.6
					C4.8,5.7,4.4,5.5,3.9,5.5C3.7,4.8,3.3,4.2,2.8,3.8C2.5,3.5,2.3,3.2,2.2,3.1C2,2.1,1.8,1.6,1.4,1.4c0.7-0.2,1.1-0.3,1.3-0.1
					c0.1,0.1,0.2,0.3,0.1,0.9v0.3c0,0.3,0.3,0.5,0.5,0.6c0.3,0,0.5,0,0.7-0.1c0.1,0.3,0.4,0.5,0.8,0.5C5.5,4.1,6.4,3.7,7,3.3
					C7.3,3.3,7.6,3,7.8,3l0,0C7.7,3.4,7.7,3.7,7.7,4.1v0.1C7.5,4.3,7.4,4.5,7.3,4.7C7.1,5,7.1,5.3,7.4,5.5l0,0
					c0.1,0.1,0.2,0.1,0.3,0.1c0.2,0,0.4-0.1,0.5-0.3c0,0,0-0.1,0.1-0.1l0,0c0.1,0.1,0.2,0.2,0.3,0.2C8.8,5.5,9,5.6,9.1,5.7
					C9,6.3,9.1,6.8,9.4,7.3c0.1,0.1,0.2,0.3,0.3,0.4C9.7,8,9.8,8.3,10,8.5C9.4,8.4,8.9,8.3,8.3,8.2z"/>
				<path id="Path_1077" class="st21" d="M10,8.5C9.5,8.4,8.9,8.3,8.4,8.2C7.6,8.1,6.9,8,6.2,7.7C6.1,7.3,5.9,7,5.6,6.7l0,0
					c0-0.2-0.1-0.5-0.3-0.6C4.9,5.7,4.4,5.5,3.9,5.5C3.7,4.8,3.4,4.2,2.8,3.8C2.6,3.5,2.4,3.2,2.2,3.1C2,2.1,1.9,1.7,1.4,1.4
					c0.7-0.2,1.1-0.3,1.3-0.1c0.1,0.1,0.2,0.3,0.1,0.9v0.3C2.9,2.8,3.1,3,3.4,3.1c0.2,0.1,0.5,0,0.7-0.1c0.1,0.3,0.4,0.5,0.8,0.5
					c0.7,0.6,1.6,0.2,2.2-0.2C7.3,3.3,7.7,3,7.9,3l0,0C7.8,3.4,7.8,3.7,7.8,4.1v0.1C7.6,4.3,7.5,4.5,7.3,4.7C7.2,5,7.2,5.3,7.5,5.5
					l0,0c0.1,0.1,0.2,0.1,0.3,0.1c0.2,0,0.4-0.1,0.5-0.3c0,0,0-0.1,0.1-0.1l0,0c0.1,0.1,0.2,0.2,0.3,0.2C9,5.6,9.2,5.7,9.3,5.8
					c-0.2,0.5-0.1,1,0.2,1.4c0.1,0.1,0.2,0.3,0.3,0.4C9.7,8,9.8,8.3,10,8.5z"/>
			</g>
			<g id="Group_759" transform="translate(5.562 13.99)" class="st22">
				<path id="Path_1078" class="st23" d="M0.1,0.1C0.1,0,0,0,0.1,0.1C0,0,0,0,0.1,0.1L0.1,0.1z"/>
			</g>
			<g id="Group_760" transform="translate(5.647 14.075)" class="st22">
				<path id="Path_1079" class="st23" d="M0,0"/>
			</g>
		</g>
	</g>
	<g class="st24">
		<path class="st21" d="M1149.3,327.2c-1.4,0-2.5-0.5-3.4-1.4c-0.9-0.9-1.3-2.1-1.3-3.6s0.4-2.8,1.3-3.8s2.1-1.4,3.6-1.4
			c1.4,0,2.5,0.5,3.4,1.4c0.9,0.9,1.3,2.1,1.3,3.6s-0.4,2.8-1.3,3.7l-0.1,0.1l-0.1,0.1l2.5,2.4h-3.1l-1.3-1.3
			C1150.3,327.1,1149.8,327.2,1149.3,327.2z M1149.4,318.9c-0.8,0-1.4,0.3-1.8,0.9c-0.5,0.6-0.7,1.3-0.7,2.3c0,1,0.2,1.7,0.7,2.3
			s1.1,0.8,1.8,0.8c0.8,0,1.4-0.3,1.8-0.8c0.4-0.6,0.7-1.3,0.7-2.3c0-1-0.2-1.8-0.6-2.4C1150.7,319.2,1150.1,318.9,1149.4,318.9z"/>
		<path class="st21" d="M1164.2,327h-2.4l-0.7-2.2h-3.5l-0.7,2.2h-2.4l3.6-9.8h2.6L1164.2,327z M1160.6,323.1l-1.1-3.3
			c-0.1-0.2-0.1-0.5-0.2-0.9h-0.1c0,0.3-0.1,0.6-0.2,0.9l-1.1,3.3H1160.6z"/>
		<path class="st21" d="M1173.7,327h-2.5l-1.5-2.5c-0.1-0.2-0.2-0.4-0.3-0.5c-0.1-0.1-0.2-0.3-0.3-0.4c-0.1-0.1-0.2-0.2-0.3-0.2
			c-0.1-0.1-0.2-0.1-0.4-0.1h-0.6v3.8h-2.2v-9.8h3.5c2.4,0,3.6,0.9,3.6,2.7c0,0.3-0.1,0.7-0.2,0.9c-0.1,0.3-0.3,0.5-0.4,0.8
			s-0.4,0.4-0.7,0.6c-0.3,0.2-0.6,0.3-0.9,0.4l0,0c0.1,0,0.3,0.1,0.4,0.2c0.1,0.1,0.3,0.2,0.4,0.4s0.3,0.3,0.4,0.4
			c0.1,0.2,0.2,0.3,0.3,0.5L1173.7,327z M1167.7,318.9v2.7h1c0.5,0,0.9-0.1,1.1-0.4c0.3-0.3,0.4-0.6,0.4-1c0-0.9-0.5-1.3-1.5-1.3
			L1167.7,318.9L1167.7,318.9z"/>
		<path class="st21" d="M1183.2,327h-2.4l-0.7-2.2h-3.5l-0.7,2.2h-2.4l3.6-9.8h2.6L1183.2,327z M1179.6,323.1l-1.1-3.3
			c-0.1-0.2-0.1-0.5-0.2-0.9h-0.1c0,0.3-0.1,0.6-0.2,0.9l-1.1,3.3H1179.6z"/>
		<path class="st21" d="M1184.5,327v-9.8h3.6c1.1,0,1.9,0.2,2.5,0.6c0.6,0.4,0.9,1,0.9,1.7c0,0.5-0.2,1-0.5,1.4
			c-0.4,0.4-0.8,0.7-1.4,0.8l0,0c0.7,0.1,1.3,0.3,1.7,0.8c0.4,0.4,0.6,1,0.6,1.6c0,0.9-0.3,1.6-1,2.1c-0.6,0.5-1.5,0.8-2.6,0.8
			H1184.5z M1186.7,318.8v2.3h1c0.5,0,0.8-0.1,1.1-0.3c0.3-0.2,0.4-0.5,0.4-0.9c0-0.7-0.5-1.1-1.6-1.1H1186.7z M1186.7,322.8v2.6
			h1.2c0.5,0,0.9-0.1,1.2-0.4c0.3-0.2,0.4-0.6,0.4-1s-0.1-0.7-0.4-0.9c-0.3-0.2-0.7-0.3-1.2-0.3L1186.7,322.8L1186.7,322.8z"/>
		<path class="st21" d="M1202.1,327h-2.4l-0.7-2.2h-3.5l-0.7,2.2h-2.4l3.6-9.8h2.6L1202.1,327z M1198.4,323.1l-1.1-3.3
			c-0.1-0.2-0.1-0.5-0.2-0.9h-0.1c0,0.3-0.1,0.6-0.2,0.9l-1.1,3.3H1198.4z"/>
		<path class="st21" d="M1211.2,326.3c-1,0.6-2.1,0.8-3.6,0.8c-1.6,0-2.8-0.4-3.7-1.3c-0.9-0.9-1.4-2.1-1.4-3.6s0.5-2.8,1.5-3.8
			c1-1,2.3-1.5,4-1.5c1,0,2,0.1,2.7,0.4v2.1c-0.8-0.4-1.7-0.7-2.8-0.7c-0.9,0-1.7,0.3-2.2,0.9c-0.6,0.6-0.9,1.4-0.9,2.4
			c0,1,0.3,1.8,0.8,2.3c0.5,0.6,1.2,0.8,2.1,0.8c0.5,0,0.9-0.1,1.3-0.2V323h-2v-1.8h4.2V326.3z M1209.8,314.2
			c-0.1,0.6-0.3,1.2-0.7,1.5c-0.4,0.4-1,0.6-1.6,0.6c-0.7,0-1.2-0.2-1.6-0.6c-0.4-0.4-0.6-0.9-0.7-1.5h1.2c0.1,0.6,0.4,0.9,1.1,0.9
			c0.6,0,1-0.3,1.1-0.9H1209.8z"/>
	</g>
	<g class="st24">
		<path class="st21" d="M1126.6,346h-2.4l-0.7-2.2h-3.5l-0.7,2.2h-2.4l3.6-9.8h2.6L1126.6,346z M1123,342.1l-1.1-3.3
			c-0.1-0.2-0.1-0.5-0.2-0.9h-0.1c0,0.3-0.1,0.6-0.2,0.9l-1.1,3.3H1123z"/>
		<path class="st21" d="M1135,346h-7.9v-1.3l5-6.7h-4.7v-1.8h7.5v1.2l-4.9,6.8h4.9L1135,346L1135,346z"/>
		<path class="st21" d="M1135.9,340.2h7.2c-0.3-1.6-1.3-2.4-3.1-2.4c-1,0-2,0.3-3,1v-2c0.9-0.6,2.1-0.9,3.4-0.9
			c1.6,0,2.9,0.4,3.8,1.3c0.9,0.9,1.3,2.1,1.3,3.6s-0.5,2.8-1.4,3.8c-0.9,1-2.1,1.4-3.6,1.4c-1.4,0-2.5-0.5-3.4-1.4
			c-0.9-0.9-1.3-2.1-1.3-3.6L1135.9,340.2L1135.9,340.2z M1143.1,341.9h-4.8c0.1,0.8,0.3,1.3,0.7,1.8c0.4,0.4,0.9,0.6,1.6,0.6
			c0.7,0,1.2-0.2,1.7-0.6C1142.7,343.3,1143,342.7,1143.1,341.9z"/>
		<path class="st21" d="M1155.3,346h-2.5l-1.5-2.5c-0.1-0.2-0.2-0.4-0.3-0.5c-0.1-0.2-0.2-0.3-0.3-0.4c-0.1-0.1-0.2-0.2-0.3-0.2
			c-0.1-0.1-0.2-0.1-0.4-0.1h-0.6v3.8h-2.2v-9.8h3.5c2.4,0,3.6,0.9,3.6,2.7c0,0.3-0.1,0.7-0.2,0.9c-0.1,0.3-0.3,0.5-0.4,0.8
			s-0.4,0.4-0.7,0.6c-0.3,0.2-0.6,0.3-0.9,0.4l0,0c0.1,0,0.3,0.1,0.4,0.2c0.1,0.1,0.3,0.2,0.4,0.4c0.1,0.1,0.3,0.3,0.4,0.4
			c0.1,0.2,0.2,0.3,0.3,0.5L1155.3,346z M1149.3,337.9v2.7h1c0.5,0,0.9-0.1,1.1-0.4c0.3-0.3,0.4-0.6,0.4-1c0-0.9-0.5-1.3-1.5-1.3
			L1149.3,337.9L1149.3,337.9z"/>
		<path class="st21" d="M1156.2,346v-9.8h3.6c1.1,0,1.9,0.2,2.5,0.6c0.6,0.4,0.9,1,0.9,1.7c0,0.5-0.2,1-0.5,1.4s-0.8,0.7-1.4,0.8
			l0,0c0.7,0.1,1.3,0.3,1.7,0.8c0.4,0.5,0.6,1,0.6,1.6c0,0.9-0.3,1.6-1,2.1c-0.6,0.5-1.5,0.8-2.6,0.8H1156.2z M1158.5,337.8v2.3h1
			c0.5,0,0.8-0.1,1.1-0.3c0.3-0.2,0.4-0.5,0.4-0.9c0-0.7-0.5-1.1-1.6-1.1H1158.5z M1158.5,341.8v2.6h1.2c0.5,0,0.9-0.1,1.2-0.4
			s0.4-0.6,0.4-1s-0.1-0.7-0.4-0.9c-0.3-0.2-0.7-0.3-1.2-0.3L1158.5,341.8L1158.5,341.8z"/>
		<path class="st21" d="M1173.8,346h-2.4l-0.7-2.2h-3.5l-0.7,2.2h-2.4l3.6-9.8h2.6L1173.8,346z M1170.2,342.1l-1.1-3.3
			c-0.1-0.2-0.1-0.5-0.2-0.9h-0.1c0,0.3-0.1,0.6-0.2,0.9l-1.1,3.3H1170.2z"/>
		<path class="st21" d="M1181.4,336.2l-3.2,6.3v3.5h-2.2v-3.4l-3.1-6.4h2.5l1.6,3.7c0,0.1,0.1,0.3,0.2,0.8l0,0
			c0.1-0.3,0.1-0.6,0.2-0.8l1.6-3.7H1181.4z"/>
		<path class="st21" d="M1189.2,345.7c-0.7,0.3-1.6,0.5-2.8,0.5c-1.5,0-2.7-0.4-3.5-1.3c-0.8-0.9-1.3-2.1-1.3-3.5
			c0-1.6,0.5-2.8,1.5-3.8c1-1,2.2-1.5,3.8-1.5c1,0,1.8,0.1,2.4,0.4v2.1c-0.7-0.4-1.4-0.6-2.2-0.6c-0.9,0-1.7,0.3-2.2,0.9
			c-0.6,0.6-0.8,1.4-0.8,2.4c0,0.9,0.3,1.7,0.8,2.3c0.5,0.6,1.3,0.8,2.2,0.8s1.7-0.2,2.4-0.6v1.9H1189.2z"/>
		<path class="st21" d="M1199.5,346h-2.4l-0.7-2.2h-3.5l-0.7,2.2h-2.4l3.6-9.8h2.6L1199.5,346z M1195.9,342.1l-1.1-3.3
			c-0.1-0.2-0.1-0.5-0.2-0.9h-0.1c0,0.3-0.1,0.6-0.2,0.9l-1.1,3.3H1195.9z"/>
		<path class="st21" d="M1209.6,346h-2.2l-4-6.2c-0.2-0.4-0.4-0.6-0.5-0.8l0,0c0,0.3,0.1,0.9,0.1,1.6v5.4h-2.1v-9.8h2.4l3.9,6
			c0.2,0.3,0.3,0.5,0.5,0.8l0,0c0-0.2-0.1-0.7-0.1-1.3v-5.4h2.1v9.7H1209.6z"/>
		<path class="st21" d="M1211.8,346v-9.8h3.5c3.5,0,5.2,1.6,5.2,4.8c0,1.5-0.5,2.7-1.4,3.7c-0.9,1-2.2,1.4-3.8,1.4h-3.5V346z
			 M1214,338v6.2h1.1c1,0,1.7-0.3,2.3-0.9c0.6-0.6,0.8-1.4,0.8-2.3c0-0.9-0.3-1.7-0.8-2.2c-0.5-0.5-1.3-0.8-2.3-0.8L1214,338
			L1214,338z"/>
		<path class="st21" d="M1224.3,346h-2.2v-9.8h2.2V346z"/>
		<path class="st21" d="M1234.8,346h-2.5l-1.5-2.5c-0.1-0.2-0.2-0.4-0.3-0.5c-0.1-0.2-0.2-0.3-0.3-0.4c-0.1-0.1-0.2-0.2-0.3-0.2
			c-0.1-0.1-0.2-0.1-0.4-0.1h-0.6v3.8h-2.2v-9.8h3.5c2.4,0,3.6,0.9,3.6,2.7c0,0.3-0.1,0.7-0.2,0.9c-0.1,0.3-0.3,0.5-0.4,0.8
			s-0.4,0.4-0.7,0.6c-0.3,0.2-0.6,0.3-0.9,0.4l0,0c0.1,0,0.3,0.1,0.4,0.2c0.1,0.1,0.3,0.2,0.4,0.4c0.1,0.1,0.2,0.3,0.4,0.4
			c0.1,0.2,0.2,0.3,0.3,0.5L1234.8,346z M1228.8,337.9v2.7h1c0.5,0,0.9-0.1,1.1-0.4c0.3-0.3,0.4-0.6,0.4-1c0-0.9-0.5-1.3-1.5-1.3
			L1228.8,337.9L1228.8,337.9z"/>
		<path class="st21" d="M1236.9,346.2c-0.4,0-0.7-0.1-0.9-0.3c-0.2-0.2-0.4-0.5-0.4-0.8c0-0.3,0.1-0.6,0.4-0.8
			c0.3-0.2,0.5-0.3,0.9-0.3s0.7,0.1,0.9,0.3c0.2,0.2,0.3,0.5,0.3,0.8c0,0.3-0.1,0.6-0.3,0.8C1237.6,346.1,1237.2,346.2,1236.9,346.2
			z M1238,336.2l-0.3,6.8h-1.8l-0.3-6.8H1238z"/>
	</g>
	<path id="Path_1080" class="st25" d="M1130.9,445.5l2.6-0.2l0.4-0.2L1130.9,445.5z"/>
</g>
<g>
	<path class="st26" d="M178.7,115.8c-2.3-0.8-2.5-4.6-2.5-4.6s-2.2,3.5-4.9,3.8c-2.6,0.2-3.5-1.3-3.5-1.3l0.9,2.3l6,0.7l6,0.7l2-1.9
		C182.7,115.4,181.1,116.7,178.7,115.8z"/>
	<polygon class="st26" points="168.5,116.2 180.5,117.6 180.4,118 168.4,116.6 	"/>
	<g>
		<g>
			<g>
				<path class="st3" d="M157.8,139.6c-0.1-1.1,0.1-3.8,2.6-4.8c0,0,0.6,4.1-2.5,5.2c-2.9,1.5-4.4-2.3-4.4-2.3
					C155.9,136.6,157.3,138.7,157.8,139.6z"/>
				<path class="st3" d="M159.7,142.3c-0.3-1-0.7-3.6,1.7-5c0,0,1.4,3.8-1.5,5.5c-2.7,2-4.9-1.2-4.9-1.2
					C157.2,139.9,159,141.5,159.7,142.3z"/>
				<path class="st3" d="M156.7,136.5c0.1-1,0.7-3.5,3-4c0,0-0.2,3.9-3,4.5c-2.8,0.9-3.5-2.8-3.5-2.8
					C155.5,133.5,156.4,135.6,156.7,136.5z"/>
				<path class="st3" d="M156.1,133.5c0.3-1,1.2-3.3,3.4-3.4c0,0-0.8,3.8-3.4,3.9c-2.7,0.3-2.7-3.3-2.7-3.3
					C155.5,130.3,156,132.6,156.1,133.5z"/>
				<path class="st3" d="M156.2,130.4c0.4-0.9,1.3-3.1,3.4-3c0,0-1,3.5-3.5,3.4c-2.5,0.1-2.4-3.4-2.4-3.4
					C155.9,127.4,156.2,129.5,156.2,130.4z"/>
				<path class="st3" d="M156.9,127.3c0.4-0.7,1.6-2.4,3.3-2c0,0-1.4,2.9-3.4,2.3c-2.1-0.3-1.3-3.4-1.3-3.4
					C157.2,124.5,157.1,126.5,156.9,127.3z"/>
				<path class="st3" d="M157.9,124.7c0.5-0.6,1.7-2,3.1-1.4c0,0-1.6,2.5-3.2,1.7c-1.8-0.5-0.7-3.2-0.7-3.2
					C158.5,122.3,158.2,124,157.9,124.7z"/>
				<path class="st3" d="M159.2,122.5c0.4-0.4,1.6-1.5,2.6-0.8c0,0-1.5,1.8-2.8,1c-1.3-0.7-0.2-2.8-0.2-2.8
					C159.9,120.6,159.4,121.9,159.2,122.5z"/>
				<path class="st3" d="M160.4,120.7c0.5-0.4,1.6-1.2,2.5-0.5c0,0-1.6,1.6-2.6,0.7c-1.1-0.8,0.1-2.7,0.1-2.7
					C161.3,118.9,160.6,120.2,160.4,120.7z"/>
				<path class="st3" d="M161.7,119.1c0.5-0.3,1.6-1,2.3-0.2c0,0-1.7,1.3-2.5,0.4c-0.9-0.9,0.4-2.5,0.4-2.5
					C162.7,117.6,162,118.7,161.7,119.1z"/>
				<path class="st3" d="M163,117.9c0.4-0.2,1.3-0.6,1.8,0.1C164.8,118,163.4,118.9,163,117.9c-0.7-0.7,0.5-1.9,0.5-1.9
					C163.9,116.7,163.3,117.6,163,117.9z"/>
				<path class="st3" d="M163.8,117.2c0,0,1.3,0.5,2.9-1.7C166.7,115.6,165,115,163.8,117.2z"/>
			</g>
			<g>
				<path class="st3" d="M178.2,141.9c0.6-1,1.9-3.5,0.2-5.1c0,0-2.7,3.7-0.5,5.5c2,2,5.4-1.1,5.4-1.1
					C181.5,139.6,179.1,141.2,178.2,141.9z"/>
				<path class="st3" d="M174.9,144c0.8-0.9,2.5-3.2,1.2-5.1c0,0-3.3,3.2-1.6,5.4c1.4,2.5,5.3,0,5.3,0
					C178.5,142.3,176,143.4,174.9,144z"/>
				<path class="st3" d="M180.9,139.3c0.4-1,1.3-3.4-0.7-4.4c0,0-2,3.7,0.4,4.8c2.1,1.4,4.8-1.9,4.8-1.9
					C183.5,136.7,181.6,138.4,180.9,139.3z"/>
				<path class="st3" d="M183.1,136.6c0.3-1,0.6-3.4-1.4-4c0,0-1.3,3.7,1.1,4.4c2.3,0.9,4.4-2.5,4.4-2.5
					C185.4,133.7,183.7,135.7,183.1,136.6z"/>
				<path class="st3" d="M184.6,133.7c0.2-0.9,0.4-3.2-1.6-3.6c0,0-1,3.5,1.4,4c2.3,0.7,4-2.6,4-2.6
					C186.5,130.9,185.1,132.8,184.6,133.7z"/>
				<path class="st3" d="M185.6,130.6c0-0.8-0.2-2.6-2-2.6c0,0-0.2,3,2,3c2.1,0.1,3-2.9,3-2.9C186.8,127.9,185.9,129.8,185.6,130.6z
					"/>
				<path class="st3" d="M186.1,127.9c-0.1-0.7-0.5-2.2-2.1-2c0,0,0.1,2.7,2.1,2.3c1.9-0.1,2.5-2.9,2.5-2.9
					C186.9,125.5,186.3,127.2,186.1,127.9z"/>
				<path class="st3" d="M186.1,125.6c-0.2-0.5-0.7-1.7-2-1.3c0,0,0.5,2.1,2,1.5c1.6-0.4,1.7-2.5,1.7-2.5
					C186.5,123.6,186.2,125,186.1,125.6z"/>
				<path class="st3" d="M186,123.6c-0.2-0.5-0.8-1.5-2-1c0,0,0.7,1.9,2.1,1.2c1.5-0.5,1.3-2.5,1.3-2.5
					C186.1,121.8,186,123.1,186,123.6z"/>
				<path class="st3" d="M185.5,121.9c-0.2-0.4-0.9-1.3-2.1-0.7c0,0,0.8,1.6,2.1,0.9c1.4-0.6,1-2.5,1-2.5
					C185.5,120.2,185.5,121.4,185.5,121.9z"/>
				<path class="st3" d="M185,120.4c-0.2-0.2-0.9-0.9-1.7-0.3C183.3,120.1,184.1,121.2,185,120.4c1.1-0.5,0.6-1.9,0.6-1.9
					C184.8,119.1,184.9,120.1,185,120.4z"/>
				<path class="st3" d="M184.6,119.6c0,0-1.4,0.2-1.8-2.2C182.8,117.4,184.6,117.3,184.6,119.6z"/>
			</g>
		</g>
	</g>
	<text transform="matrix(0.9094 0.1044 -0.2692 0.9631 160.8732 145.3513)" class="st27 st28 st29">il</text>
</g>
<g>
	<path class="st3" d="M168.9,133.2l6.2,0.8l-0.3,2.7l-9.7-1.2l0.1-1.1c0.1-0.7,0.3-1.4,0.6-2c0.3-0.6,0.7-1.1,1.2-1.5
		c0.4-0.4,0.9-0.8,1.4-1.1c0.5-0.3,1-0.6,1.4-0.8c0.5-0.2,0.9-0.5,1.2-0.7c0.4-0.2,0.7-0.5,0.9-0.7s0.5-0.5,0.6-0.8
		c0.1-0.3,0.2-0.6,0.3-0.9c0.1-0.6,0-1.1-0.3-1.5c-0.3-0.4-0.8-0.6-1.6-0.7c-1.3-0.2-2.5,0.2-3.8,1l0.4-2.8c1.4-0.7,2.9-0.9,4.4-0.7
		c0.7,0.1,1.4,0.3,1.9,0.5c0.6,0.3,1,0.6,1.4,1c0.4,0.4,0.6,0.9,0.8,1.4c0.1,0.5,0.2,1.1,0.1,1.8c-0.1,0.7-0.3,1.3-0.5,1.7
		c-0.3,0.5-0.6,0.9-1,1.3c-0.4,0.4-0.8,0.7-1.3,1c-0.5,0.3-1,0.6-1.5,0.9c-0.4,0.2-0.7,0.4-1,0.6c-0.3,0.2-0.6,0.4-0.9,0.6
		c-0.3,0.2-0.5,0.4-0.6,0.6C169,132.8,168.9,133,168.9,133.2z"/>
</g>
</svg>
